<svg width="1036" height="224" xmlns="http://www.w3.org/2000/svg"><g fill="none" fill-rule="evenodd"><path stroke="#EEE" stroke-width="20" fill="#142449" d="M-327 -10H867V214H-327z"/><path d="M49.262 102.07C73.192 38.107 118.507.757 185.19-10h703.62C953.554.445 998.145 35.964 1022.592 96.547l2.146 5.384C1000.808 165.892 955.493 203.242 888.81 214H185.19c-64.744-10.445-109.335-45.964-133.782-106.547l-2.146-5.384z" fill="#385281" stroke="#EEE" stroke-linecap="square" stroke-width="20"/><g transform="translate(222 31)" fill="#FFF" fill-rule="nonzero"><path d="M21.408 98c3.024 0 5.556-.408 7.596-1.224 2.04-.816 3.696-1.908 4.968-3.276a11.713 11.713 0 0 0 2.7-4.788c.528-1.824.792-3.744.792-5.76 0-3.456-.84-6.216-2.52-8.28-1.68-2.064-3.96-3.288-6.84-3.672v-.144c2.592-.72 4.536-2.076 5.832-4.068 1.296-1.992 1.944-4.38 1.944-7.164 0-2.448-.36-4.512-1.08-6.192-.72-1.68-1.728-3.024-3.024-4.032s-2.844-1.728-4.644-2.16c-1.8-.432-3.756-.648-5.868-.648H3.912V98h17.496zm-4.176-30.312H14.28V54.224h3.744c2.592 0 4.488.504 5.688 1.512 1.2 1.008 1.8 2.736 1.8 5.184s-.66 4.188-1.98 5.22c-1.32 1.032-3.42 1.548-6.3 1.548zm1.08 22.68H14.28v-15.48h4.464c1.152 0 2.208.12 3.168.36s1.788.66 2.484 1.26 1.248 1.392 1.656 2.376c.408.984.612 2.22.612 3.708 0 2.976-.768 5.016-2.304 6.12-1.536 1.104-3.552 1.656-6.048 1.656zm46.048 8.424c3.888 0 6.984-.624 9.288-1.872 2.304-1.248 4.068-3.048 5.292-5.4 1.224-2.352 2.016-5.16 2.376-8.424.36-3.264.54-6.864.54-10.8 0-3.888-.18-7.476-.54-10.764-.36-3.288-1.152-6.108-2.376-8.46a13.3 13.3 0 0 0-5.292-5.508c-2.304-1.32-5.4-1.98-9.288-1.98s-6.984.66-9.288 1.98a13.3 13.3 0 0 0-5.292 5.508c-1.224 2.352-2.016 5.172-2.376 8.46-.36 3.288-.54 6.876-.54 10.764 0 3.936.18 7.536.54 10.8.36 3.264 1.152 6.072 2.376 8.424 1.224 2.352 2.988 4.152 5.292 5.4 2.304 1.248 5.4 1.872 9.288 1.872zm0-7.416c-1.536 0-2.772-.348-3.708-1.044-.936-.696-1.656-1.8-2.16-3.312-.504-1.512-.84-3.48-1.008-5.904-.168-2.424-.252-5.364-.252-8.82 0-3.456.084-6.384.252-8.784.168-2.4.504-4.368 1.008-5.904.504-1.536 1.224-2.652 2.16-3.348.936-.696 2.172-1.044 3.708-1.044s2.772.348 3.708 1.044c.936.696 1.656 1.812 2.16 3.348.504 1.536.84 3.504 1.008 5.904.168 2.4.252 5.328.252 8.784 0 3.456-.084 6.396-.252 8.82-.168 2.424-.504 4.392-1.008 5.904-.504 1.512-1.224 2.616-2.16 3.312-.936.696-2.172 1.044-3.708 1.044zm44.032 7.416c3.888 0 6.984-.624 9.288-1.872 2.304-1.248 4.068-3.048 5.292-5.4 1.224-2.352 2.016-5.16 2.376-8.424.36-3.264.54-6.864.54-10.8 0-3.888-.18-7.476-.54-10.764-.36-3.288-1.152-6.108-2.376-8.46a13.3 13.3 0 0 0-5.292-5.508c-2.304-1.32-5.4-1.98-9.288-1.98s-6.984.66-9.288 1.98a13.3 13.3 0 0 0-5.292 5.508c-1.224 2.352-2.016 5.172-2.376 8.46-.36 3.288-.54 6.876-.54 10.764 0 3.936.18 7.536.54 10.8.36 3.264 1.152 6.072 2.376 8.424 1.224 2.352 2.988 4.152 5.292 5.4 2.304 1.248 5.4 1.872 9.288 1.872zm0-7.416c-1.536 0-2.772-.348-3.708-1.044-.936-.696-1.656-1.8-2.16-3.312-.504-1.512-.84-3.48-1.008-5.904-.168-2.424-.252-5.364-.252-8.82 0-3.456.084-6.384.252-8.784.168-2.4.504-4.368 1.008-5.904.504-1.536 1.224-2.652 2.16-3.348.936-.696 2.172-1.044 3.708-1.044s2.772.348 3.708 1.044c.936.696 1.656 1.812 2.16 3.348.504 1.536.84 3.504 1.008 5.904.168 2.4.252 5.328.252 8.784 0 3.456-.084 6.396-.252 8.82-.168 2.424-.504 4.392-1.008 5.904-.504 1.512-1.224 2.616-2.16 3.312-.936.696-2.172 1.044-3.708 1.044zM146.376 98V82.736l3.816-5.832L160.776 98h11.664l-15.552-29.376 13.968-22.032h-11.232L146.52 67.184h-.144V46.592h-10.368V98h10.368zm42.016 0V56.96h.144L197.68 98h8.064l9.144-41.04h.144V98h9.504V46.592H209.2l-7.416 36.288h-.144l-7.344-36.288h-15.408V98h9.504zm54.76 0l2.376-10.872h13.68L261.584 98h10.8l-13.608-51.408H245.96L232.352 98h10.8zm14.256-19.368h-10.08l4.968-23.112h.144l4.968 23.112zM290.352 98V76.256h5.544c2.16 0 3.696.576 4.608 1.728.912 1.152 1.416 2.736 1.512 4.752l.288 9.864c.048 1.008.144 1.98.288 2.916.144.936.48 1.764 1.008 2.484h11.232v-.432c-.96-.528-1.584-1.512-1.872-2.952-.192-1.44-.336-3.528-.432-6.264a473.309 473.309 0 0 0-.144-3.78 55.193 55.193 0 0 0-.216-3.132c-.288-2.88-1.032-4.968-2.232-6.264-1.2-1.296-3.096-2.136-5.688-2.52v-.144c2.928-.624 5.088-2.028 6.48-4.212 1.392-2.184 2.088-5.004 2.088-8.46 0-4.464-1.2-7.788-3.6-9.972-2.4-2.184-5.76-3.276-10.08-3.276h-19.152V98h10.368zm4.32-28.944h-4.32V54.224h4.896c4.8 0 7.2 2.376 7.2 7.128 0 2.784-.672 4.764-2.016 5.94-1.344 1.176-3.264 1.764-5.76 1.764zM334.384 98V82.736l3.816-5.832L348.784 98h11.664l-15.552-29.376 13.968-22.032h-11.232l-13.104 20.592h-.144V46.592h-10.368V98h10.368zm46.624.792c5.616 0 9.996-1.236 13.14-3.708 3.144-2.472 4.716-6.42 4.716-11.844 0-1.584-.144-3.024-.432-4.32a10.074 10.074 0 0 0-1.548-3.564c-.744-1.08-1.74-2.088-2.988-3.024-1.248-.936-2.856-1.836-4.824-2.7l-7.992-3.456c-2.208-.912-3.648-1.908-4.32-2.988-.672-1.08-1.008-2.412-1.008-3.996 0-.768.084-1.512.252-2.232a4.59 4.59 0 0 1 .936-1.908c.456-.552 1.068-.996 1.836-1.332.768-.336 1.728-.504 2.88-.504 2.016 0 3.456.66 4.32 1.98.864 1.32 1.296 3.204 1.296 5.652h9.936v-1.44c0-2.448-.396-4.548-1.188-6.3-.792-1.752-1.896-3.192-3.312-4.32-1.416-1.128-3.096-1.944-5.04-2.448s-4.068-.756-6.372-.756c-4.944 0-8.832 1.248-11.664 3.744-2.832 2.496-4.248 6.288-4.248 11.376 0 2.112.264 3.972.792 5.58a11.474 11.474 0 0 0 2.484 4.248c1.128 1.224 2.532 2.292 4.212 3.204 1.68.912 3.672 1.752 5.976 2.52 1.728.576 3.18 1.14 4.356 1.692 1.176.552 2.124 1.164 2.844 1.836.72.672 1.236 1.428 1.548 2.268.312.84.468 1.836.468 2.988 0 2.16-.636 3.756-1.908 4.788-1.272 1.032-2.7 1.548-4.284 1.548-1.344 0-2.46-.192-3.348-.576-.888-.384-1.596-.912-2.124-1.584s-.888-1.5-1.08-2.484c-.192-.984-.288-2.076-.288-3.276v-1.512h-10.368v2.088c0 4.752 1.26 8.4 3.78 10.944 2.52 2.544 6.708 3.816 12.564 3.816zM427.92 81.44v-8.496h-20.304v8.496h20.304zM445.888 98l2.376-10.872h13.68L464.32 98h10.8l-13.608-51.408h-12.816L435.088 98h10.8zm14.256-19.368h-10.08l4.968-23.112h.144l4.968 23.112zm42.448 2.808v-8.496h-20.304v8.496h20.304zM542.088 98v-8.496h-18.36V46.592H513.36V98h28.728zm25.024.792c3.888 0 6.984-.624 9.288-1.872 2.304-1.248 4.068-3.048 5.292-5.4 1.224-2.352 2.016-5.16 2.376-8.424.36-3.264.54-6.864.54-10.8 0-3.888-.18-7.476-.54-10.764-.36-3.288-1.152-6.108-2.376-8.46a13.3 13.3 0 0 0-5.292-5.508c-2.304-1.32-5.4-1.98-9.288-1.98s-6.984.66-9.288 1.98a13.3 13.3 0 0 0-5.292 5.508c-1.224 2.352-2.016 5.172-2.376 8.46-.36 3.288-.54 6.876-.54 10.764 0 3.936.18 7.536.54 10.8.36 3.264 1.152 6.072 2.376 8.424 1.224 2.352 2.988 4.152 5.292 5.4 2.304 1.248 5.4 1.872 9.288 1.872zm0-7.416c-1.536 0-2.772-.348-3.708-1.044-.936-.696-1.656-1.8-2.16-3.312-.504-1.512-.84-3.48-1.008-5.904-.168-2.424-.252-5.364-.252-8.82 0-3.456.084-6.384.252-8.784.168-2.4.504-4.368 1.008-5.904.504-1.536 1.224-2.652 2.16-3.348.936-.696 2.172-1.044 3.708-1.044s2.772.348 3.708 1.044c.936.696 1.656 1.812 2.16 3.348.504 1.536.84 3.504 1.008 5.904.168 2.4.252 5.328.252 8.784 0 3.456-.084 6.396-.252 8.82-.168 2.424-.504 4.392-1.008 5.904-.504 1.512-1.224 2.616-2.16 3.312-.936.696-2.172 1.044-3.708 1.044zM613.592 98V55.088h11.232v-8.496h-32.832v8.496h11.232V98h10.368zM230.958 17v-6.808h4.991c4.416 0 6.302-1.932 6.302-5.014 0-2.967-2.047-4.784-6.693-4.784h-7.82V17h3.22zm4.347-9.131h-4.347V2.717h4.232c2.622 0 3.703.943 3.703 2.461 0 1.817-1.173 2.691-3.588 2.691zM258.765 17v-2.392h-10.074V9.709h9.223V7.317h-9.223V2.786h9.821V.394h-13.041V17h13.294zm6.808 0V9.962h4.278c2.461 0 3.151.23 3.634 2.139l.506 2.047c.184.713.391 1.955.598 2.852h3.427c-.161-.322-.391-1.173-.552-2.07l-.598-2.852c-.437-2.576-1.541-3.128-3.542-3.289.759-.115 3.979-.966 3.979-3.933 0-2.714-1.84-4.462-6.187-4.462h-8.763V17h3.22zm4.784-9.361h-4.784V2.717h4.784c2.553 0 3.634.713 3.634 2.438 0 1.794-1.081 2.484-3.634 2.484zM284.364 17V2.487L291.149 17h3.519l6.785-14.513V17h3.128V.394h-5.083l-6.44 13.938L286.595.394h-5.106V17h2.875zm26.013 0l1.955-3.979h10.028L324.292 17h3.657L319.37.394h-3.818L306.927 17h3.45zm10.856-6.256h-7.751l3.887-7.958 3.864 7.958zM333.193 17V3.246L342.554 17h4.416V.394h-2.898v13.754L334.711.394h-4.416V17h2.898zm31.579 0v-2.392h-10.074V9.709h9.223V7.317h-9.223V2.786h9.821V.394h-13.041V17h13.294zm6.486 0V3.246L380.619 17h4.416V.394h-2.898v13.754L372.776.394h-4.416V17h2.898zm26.243 0V2.809h6.831V.394h-16.859v2.415h6.808V17h3.22zM195.285 145l4.554-14.237L204.416 145h4.186l5.428-16.606h-3.243l-4.117 14.352-4.692-14.352h-4.094l-4.554 14.352-4.232-14.352h-3.427L191.099 145h4.186zm34.569 0v-2.392H219.78v-4.899h9.223v-2.392h-9.223v-4.531h9.821v-2.392H216.56V145h13.294zm12.466 0c4.761 0 6.509-2.185 6.509-4.646 0-2.231-1.564-3.68-4.048-4.025 2.438-.552 3.404-1.909 3.404-3.772 0-2.622-1.771-4.163-6.348-4.163h-8.395V145h8.878zm-.506-9.683h-5.198v-4.623h4.669c2.783 0 3.634.828 3.634 2.3 0 1.61-1.081 2.323-3.105 2.323zm.046 7.383h-5.244v-5.129h5.152c2.346 0 3.703.805 3.703 2.599 0 1.564-.943 2.53-3.611 2.53zm28.014 2.3c4.761 0 6.509-2.185 6.509-4.646 0-2.231-1.564-3.68-4.048-4.025 2.438-.552 3.404-1.909 3.404-3.772 0-2.622-1.771-4.163-6.348-4.163h-8.395V145h8.878zm-.506-9.683h-5.198v-4.623h4.669c2.783 0 3.634.828 3.634 2.3 0 1.61-1.081 2.323-3.105 2.323zm.046 7.383h-5.244v-5.129h5.152c2.346 0 3.703.805 3.703 2.599 0 1.564-.943 2.53-3.611 2.53zm19.113 2.737c6.9 0 9.522-4.324 9.522-8.74 0-4.554-2.576-8.74-9.522-8.74-6.831 0-9.522 4.324-9.522 8.74 0 4.462 2.346 8.74 9.522 8.74zm0-2.369c-4.048 0-6.164-2.576-6.164-6.371 0-3.795 2.277-6.371 6.164-6.371 3.979 0 6.164 2.438 6.164 6.371 0 3.703-2.139 6.371-6.164 6.371zm21.62 2.369c6.9 0 9.522-4.324 9.522-8.74 0-4.554-2.576-8.74-9.522-8.74-6.831 0-9.522 4.324-9.522 8.74 0 4.462 2.346 8.74 9.522 8.74zm0-2.369c-4.048 0-6.164-2.576-6.164-6.371 0-3.795 2.277-6.371 6.164-6.371 3.979 0 6.164 2.438 6.164 6.371 0 3.703-2.139 6.371-6.164 6.371zm29.44 1.932l-9.223-9.108 8.464-7.498h-4.117l-8.165 7.521 8.671 9.085h4.37zm-13.156 0v-16.606h-3.22V145h3.22zm18.308 0v-14.513L351.524 145h3.519l6.785-14.513V145h3.128v-16.606h-5.083l-6.44 13.938-6.463-13.938h-5.106V145h2.875zm26.013 0l1.955-3.979h10.028l1.932 3.979h3.657l-8.579-16.606h-3.818L367.302 145h3.45zm10.856-6.256h-7.751l3.887-7.958 3.864 7.958zM393.89 145v-7.038h4.278c2.461 0 3.151.23 3.634 2.139l.506 2.047c.184.713.391 1.955.598 2.852h3.427c-.161-.322-.391-1.173-.552-2.07l-.598-2.852c-.437-2.576-1.541-3.128-3.542-3.289.759-.115 3.979-.966 3.979-3.933 0-2.714-1.84-4.462-6.187-4.462h-8.763V145h3.22zm4.784-9.361h-4.784v-4.922h4.784c2.553 0 3.634.713 3.634 2.438 0 1.794-1.081 2.484-3.634 2.484zM426.182 145l-9.223-9.108 8.464-7.498h-4.117l-8.165 7.521 8.671 9.085h4.37zm-13.156 0v-16.606h-3.22V145h3.22zm22.218.437c4.669 0 8.073-1.61 8.073-5.359 0-3.151-2.438-3.956-5.129-4.439l-3.956-.713c-1.978-.345-3.082-.805-3.082-2.093 0-1.61 1.656-2.53 4.163-2.53 2.185 0 4.048.506 4.255 2.622h3.289c-.161-3.634-3.542-4.968-7.498-4.968-4.255 0-7.429 1.702-7.429 5.152 0 2.967 2.392 3.933 5.014 4.416l4.002.736c2.07.391 3.128.874 3.128 2.185 0 1.541-1.518 2.645-4.761 2.645-2.645 0-4.485-1.012-4.554-3.197h-3.312c.207 3.404 2.369 5.543 7.797 5.543z"/></g><g transform="rotate(-90 145.5 27.5)"><path d="M69.57.619c13.072 2.805 39.562 13.066 46.683 16.721l1.752.917 4.388 2.192c5.266 2.686 9.607 5.558 9.607 11.86l-.008 2.272-.026 1.461c-.174 6.717-1.243 11.97-7.758 14.871-3.819 1.701-29.468 2.7-56.153 3.051l-.632.03-.652.005-.769-.01-.773.01c-.441.005-.87-.006-1.288-.032l-9.113-.147c-23.167-.445-43.655-1.4-47.036-2.907C.812 47.805.083 41.996.008 34.581L0 32.309c0-8.248 7.437-10.62 14.652-14.391l.655-.347C21.699 14.139 49.07 3.485 62.43.621c.841-.187 2.961-.681 3.555-.615.613-.066 2.774.45 3.584.613z" fill-opacity=".35" fill="#FFF"/><g transform="translate(13 6)" fill="#052D4A"><path d="M40.215 20.903l-3.19-14.241 7.516 8.522L47.227 0l5.985 14.396L59.197 0l2.686 15.184L69.4 6.662l-3.19 14.24H40.215z"/><path d="M2.442 38.82V28.738l4.735 10.08h2.455l4.735-10.08v10.08h2.183V27.285h-3.547l-4.494 9.681-4.51-9.681H.436v11.534h2.006zm22.807.303c3.033 0 5.57-.99 5.81-3.754h-2.424c-.224 1.438-1.605 2.108-3.161 2.108-2.552 0-4.11-1.437-4.11-4.44 0-2.86 1.606-4.41 4.158-4.41 1.524 0 2.744.527 3.001 1.949h2.408c-.097-2.316-2.488-3.595-5.313-3.595-4.542 0-6.597 2.828-6.597 6.071 0 3.675 2.151 6.071 6.228 6.071zm14.477 0c1.99 0 3.724-.288 5.617-.895v-5.543H39.71v1.597h3.483v2.62c-.963.352-2.28.591-3.387.591-3.258 0-4.799-1.82-4.799-4.473 0-2.54 1.557-4.409 4.558-4.409 1.718 0 3.066.48 3.355 1.885h2.36c-.274-2.556-2.681-3.515-5.827-3.515-4.446 0-6.789 2.589-6.789 6.04 0 3.738 2.44 6.102 7.062 6.102zm13.947 0c3.42 0 5.682-1.63 5.682-5.16v-6.678h-2.247v6.678c0 2.22-1.107 3.514-3.435 3.514-2.279 0-3.45-1.166-3.45-3.386v-6.806h-2.247v6.822c0 3.53 2.134 5.016 5.697 5.016zm10.979-.304V27.285h-2.247v11.534h2.247zm5.392 0v-4.888h2.986c1.717 0 2.199.16 2.536 1.486l.353 1.421c.128.496.273 1.358.417 1.981h2.391c-.112-.223-.272-.814-.385-1.437l-.417-1.981c-.305-1.79-1.075-2.173-2.472-2.285.53-.08 2.777-.67 2.777-2.732 0-1.885-1.284-3.099-4.318-3.099h-6.115v11.534h2.247zm3.339-6.502h-3.339V28.9h3.339c1.781 0 2.536.495 2.536 1.693 0 1.246-.755 1.725-2.536 1.725zm17.045 6.502v-1.661h-7.03v-3.403h6.436v-1.661h-6.436v-3.148h6.853v-1.661h-9.1v11.534h9.277zm3.852-7.78l1.765-3.754h-2.279l-1.155 3.754h1.669zm9.325 8.084c3.258 0 5.634-1.118 5.634-3.722 0-2.189-1.702-2.748-3.58-3.084l-2.76-.495c-1.38-.24-2.15-.56-2.15-1.454 0-1.118 1.155-1.757 2.904-1.757 1.525 0 2.825.351 2.97 1.821h2.295c-.113-2.524-2.472-3.45-5.233-3.45-2.969 0-5.184 1.182-5.184 3.578 0 2.06 1.67 2.732 3.499 3.067l2.793.512c1.444.271 2.182.607 2.182 1.517 0 1.07-1.059 1.837-3.322 1.837-1.846 0-3.13-.702-3.178-2.22h-2.311c.144 2.364 1.653 3.85 5.441 3.85z" fill-rule="nonzero"/></g></g></g></svg>