<?xml version="1.0" encoding="UTF-8"?>
<svg width="1023px" height="224px" viewBox="0 0 1023 224" version="1.1" xmlns="http://www.w3.org/2000/svg" xmlns:xlink="http://www.w3.org/1999/xlink">
    <title>Slice</title>
    <g id="Page-1" stroke="none" stroke-width="1" fill="none" fill-rule="evenodd">
        <g id="bmal-logo" transform="translate(-339.000000, -10.000000)" fill-rule="nonzero">
            <g id="Group-2">
                <polygon id="Path" stroke="#EEEEEE" stroke-width="20" fill="#142449" points="0 0 1194 0 1194 224 0 224"></polygon>
                <path d="M376.262,112.07 C400.192,48.107 445.507,10.757 512.19,0 L1215.81,0 C1280.554,10.445 1325.145,45.964 1349.592,106.547 L1351.738,111.931 C1327.808,175.892 1282.493,213.242 1215.81,224 L512.19,224 C447.446,213.555 402.855,178.036 378.408,117.453 L376.262,112.07 Z" id="Path" stroke="#EEEEEE" stroke-width="20" fill="#385281" stroke-linecap="square"></path>
                <g id="Group" transform="translate(552.912000, 41.394000)" fill="#FFFFFF">
                    <path d="M17.496,97.606 C20.52,97.606 23.052,97.198 25.092,96.382 C27.132,95.566 28.788,94.474 30.06,93.106 C31.327055,91.7467658 32.2525379,90.1055761 32.76,88.318 C33.288,86.494 33.552,84.574 33.552,82.558 C33.552,79.102 32.712,76.342 31.032,74.278 C29.352,72.214 27.072,70.99 24.192,70.606 L24.192,70.462 C26.784,69.742 28.728,68.386 30.024,66.394 C31.32,64.402 31.968,62.014 31.968,59.23 C31.968,56.782 31.608,54.718 30.888,53.038 C30.168,51.358 29.16,50.014 27.864,49.006 C26.568,47.998 25.02,47.278 23.22,46.846 C21.42,46.414 19.464,46.198 17.352,46.198 L0,46.198 L0,97.606 L17.496,97.606 Z M13.32,67.294 L10.368,67.294 L10.368,53.83 L14.112,53.83 C16.704,53.83 18.6,54.334 19.8,55.342 C21,56.35 21.6,58.078 21.6,60.526 C21.6,62.974 20.94,64.714 19.62,65.746 C18.3,66.778 16.2,67.294 13.32,67.294 Z M14.4,89.974 L10.368,89.974 L10.368,74.494 L14.832,74.494 C15.984,74.494 17.04,74.614 18,74.854 C18.96,75.094 19.788,75.514 20.484,76.114 C21.18,76.714 21.732,77.506 22.14,78.49 C22.548,79.474 22.752,80.71 22.752,82.198 C22.752,85.174 21.984,87.214 20.448,88.318 C18.912,89.422 16.896,89.974 14.4,89.974 L14.4,89.974 Z M60.448,98.398 C64.336,98.398 67.432,97.774 69.736,96.526 C72.04,95.278 73.804,93.478 75.028,91.126 C76.252,88.774 77.044,85.966 77.404,82.702 C77.764,79.438 77.944,75.838 77.944,71.902 C77.944,68.014 77.764,64.426 77.404,61.138 C77.044,57.85 76.252,55.03 75.028,52.678 C73.8404992,50.364059 72.0006096,48.4490719 69.736,47.17 C67.432,45.85 64.336,45.19 60.448,45.19 C56.56,45.19 53.464,45.85 51.16,47.17 C48.8953904,48.4490719 47.0555008,50.364059 45.868,52.678 C44.644,55.03 43.852,57.85 43.492,61.138 C43.132,64.426 42.952,68.014 42.952,71.902 C42.952,75.838 43.132,79.438 43.492,82.702 C43.852,85.966 44.644,88.774 45.868,91.126 C47.092,93.478 48.856,95.278 51.16,96.526 C53.464,97.774 56.56,98.398 60.448,98.398 L60.448,98.398 Z M60.448,90.982 C58.912,90.982 57.676,90.634 56.74,89.938 C55.804,89.242 55.084,88.138 54.58,86.626 C54.076,85.114 53.74,83.146 53.572,80.722 C53.404,78.298 53.32,75.358 53.32,71.902 C53.32,68.446 53.404,65.518 53.572,63.118 C53.74,60.718 54.076,58.75 54.58,57.214 C55.084,55.678 55.804,54.562 56.74,53.866 C57.676,53.17 58.912,52.822 60.448,52.822 C61.984,52.822 63.22,53.17 64.156,53.866 C65.092,54.562 65.812,55.678 66.316,57.214 C66.82,58.75 67.156,60.718 67.324,63.118 C67.492,65.518 67.576,68.446 67.576,71.902 C67.576,75.358 67.492,78.298 67.324,80.722 C67.156,83.146 66.82,85.114 66.316,86.626 C65.812,88.138 65.092,89.242 64.156,89.938 C63.22,90.634 61.984,90.982 60.448,90.982 Z M104.48,98.398 C108.368,98.398 111.464,97.774 113.768,96.526 C116.072,95.278 117.836,93.478 119.06,91.126 C120.284,88.774 121.076,85.966 121.436,82.702 C121.796,79.438 121.976,75.838 121.976,71.902 C121.976,68.014 121.796,64.426 121.436,61.138 C121.076,57.85 120.284,55.03 119.06,52.678 C117.872499,50.364059 116.03261,48.4490719 113.768,47.17 C111.464,45.85 108.368,45.19 104.48,45.19 C100.592,45.19 97.496,45.85 95.192,47.17 C92.9273904,48.4490719 91.0875008,50.364059 89.9,52.678 C88.676,55.03 87.884,57.85 87.524,61.138 C87.164,64.426 86.984,68.014 86.984,71.902 C86.984,75.838 87.164,79.438 87.524,82.702 C87.884,85.966 88.676,88.774 89.9,91.126 C91.124,93.478 92.888,95.278 95.192,96.526 C97.496,97.774 100.592,98.398 104.48,98.398 L104.48,98.398 Z M104.48,90.982 C102.944,90.982 101.708,90.634 100.772,89.938 C99.836,89.242 99.116,88.138 98.612,86.626 C98.108,85.114 97.772,83.146 97.604,80.722 C97.436,78.298 97.352,75.358 97.352,71.902 C97.352,68.446 97.436,65.518 97.604,63.118 C97.772,60.718 98.108,58.75 98.612,57.214 C99.116,55.678 99.836,54.562 100.772,53.866 C101.708,53.17 102.944,52.822 104.48,52.822 C106.016,52.822 107.252,53.17 108.188,53.866 C109.124,54.562 109.844,55.678 110.348,57.214 C110.852,58.75 111.188,60.718 111.356,63.118 C111.524,65.518 111.608,68.446 111.608,71.902 C111.608,75.358 111.524,78.298 111.356,80.722 C111.188,83.146 110.852,85.114 110.348,86.626 C109.844,88.138 109.124,89.242 108.188,89.938 C107.252,90.634 106.016,90.982 104.48,90.982 Z M142.464,97.606 L142.464,82.342 L146.28,76.51 L156.864,97.606 L168.528,97.606 L152.976,68.23 L166.944,46.198 L155.712,46.198 L142.608,66.79 L142.464,66.79 L142.464,46.198 L132.096,46.198 L132.096,97.606 L142.464,97.606 Z M184.48,97.606 L184.48,56.566 L184.624,56.566 L193.768,97.606 L201.832,97.606 L210.976,56.566 L211.12,56.566 L211.12,97.606 L220.624,97.606 L220.624,46.198 L205.288,46.198 L197.872,82.486 L197.728,82.486 L190.384,46.198 L174.976,46.198 L174.976,97.606 L184.48,97.606 Z M239.24,97.606 L241.616,86.734 L255.296,86.734 L257.672,97.606 L268.472,97.606 L254.864,46.198 L242.048,46.198 L228.44,97.606 L239.24,97.606 L239.24,97.606 Z M253.496,78.238 L243.416,78.238 L248.384,55.126 L248.528,55.126 L253.496,78.238 Z M286.44,97.606 L286.44,75.862 L291.984,75.862 C294.144,75.862 295.68,76.438 296.592,77.59 C297.504,78.742 298.008,80.326 298.104,82.342 L298.392,92.206 C298.44,93.214 298.536,94.186 298.68,95.122 C298.824,96.058 299.16,96.886 299.688,97.606 L310.92,97.606 L310.92,97.174 C309.96,96.646 309.336,95.662 309.048,94.222 C308.856,92.782 308.712,90.694 308.616,87.958 C308.573035,86.6978132 308.525035,85.4378032 308.472,84.178 C308.429713,83.1321631 308.357683,82.0877407 308.256,81.046 C307.968,78.166 307.224,76.078 306.024,74.782 C304.824,73.486 302.928,72.646 300.336,72.262 L300.336,72.118 C303.264,71.494 305.424,70.09 306.816,67.906 C308.208,65.722 308.904,62.902 308.904,59.446 C308.904,54.982 307.704,51.658 305.304,49.474 C302.904,47.29 299.544,46.198 295.224,46.198 L276.072,46.198 L276.072,97.606 L286.44,97.606 Z M290.76,68.662 L286.44,68.662 L286.44,53.83 L291.336,53.83 C296.136,53.83 298.536,56.206 298.536,60.958 C298.536,63.742 297.864,65.722 296.52,66.898 C295.176,68.074 293.256,68.662 290.76,68.662 Z M330.472,97.606 L330.472,82.342 L334.288,76.51 L344.872,97.606 L356.536,97.606 L340.984,68.23 L354.952,46.198 L343.72,46.198 L330.616,66.79 L330.472,66.79 L330.472,46.198 L320.104,46.198 L320.104,97.606 L330.472,97.606 L330.472,97.606 Z M377.096,98.398 C382.712,98.398 387.092,97.162 390.236,94.69 C393.38,92.218 394.952,88.27 394.952,82.846 C394.952,81.262 394.808,79.822 394.52,78.526 C394.240173,77.2488001 393.714395,76.0382865 392.972,74.962 C392.228,73.882 391.232,72.874 389.984,71.938 C388.736,71.002 387.128,70.102 385.16,69.238 L377.168,65.782 C374.96,64.87 373.52,63.874 372.848,62.794 C372.176,61.714 371.84,60.382 371.84,58.798 C371.84,58.03 371.924,57.286 372.092,56.566 C372.250439,55.8655336 372.571031,55.2120178 373.028,54.658 C373.484,54.106 374.096,53.662 374.864,53.326 C375.632,52.99 376.592,52.822 377.744,52.822 C379.76,52.822 381.2,53.482 382.064,54.802 C382.928,56.122 383.36,58.006 383.36,60.454 L393.296,60.454 L393.296,59.014 C393.296,56.566 392.9,54.466 392.108,52.714 C391.316,50.962 390.212,49.522 388.796,48.394 C387.38,47.266 385.7,46.45 383.756,45.946 C381.812,45.442 379.688,45.19 377.384,45.19 C372.44,45.19 368.552,46.438 365.72,48.934 C362.888,51.43 361.472,55.222 361.472,60.31 C361.472,62.422 361.736,64.282 362.264,65.89 C362.775037,67.4689814 363.622525,68.918309 364.748,70.138 C365.876,71.362 367.28,72.43 368.96,73.342 C370.64,74.254 372.632,75.094 374.936,75.862 C376.664,76.438 378.116,77.002 379.292,77.554 C380.468,78.106 381.416,78.718 382.136,79.39 C382.856,80.062 383.372,80.818 383.684,81.658 C383.996,82.498 384.152,83.494 384.152,84.646 C384.152,86.806 383.516,88.402 382.244,89.434 C380.972,90.466 379.544,90.982 377.96,90.982 C376.616,90.982 375.5,90.79 374.612,90.406 C373.724,90.022 373.016,89.494 372.488,88.822 C371.96,88.15 371.6,87.322 371.408,86.338 C371.216,85.354 371.12,84.262 371.12,83.062 L371.12,81.55 L360.752,81.55 L360.752,83.638 C360.752,88.39 362.012,92.038 364.532,94.582 C367.052,97.126 371.24,98.398 377.096,98.398 L377.096,98.398 Z M424.008,81.046 L424.008,72.55 L403.704,72.55 L403.704,81.046 L424.008,81.046 Z M441.976,97.606 L444.352,86.734 L458.032,86.734 L460.408,97.606 L471.208,97.606 L457.6,46.198 L444.784,46.198 L431.176,97.606 L441.976,97.606 L441.976,97.606 Z M456.232,78.238 L446.152,78.238 L451.12,55.126 L451.264,55.126 L456.232,78.238 L456.232,78.238 Z M498.68,81.046 L498.68,72.55 L478.376,72.55 L478.376,81.046 L498.68,81.046 Z M538.176,97.606 L538.176,89.11 L519.816,89.11 L519.816,46.198 L509.448,46.198 L509.448,97.606 L538.176,97.606 Z M563.2,98.398 C567.088,98.398 570.184,97.774 572.488,96.526 C574.792,95.278 576.556,93.478 577.78,91.126 C579.004,88.774 579.796,85.966 580.156,82.702 C580.516,79.438 580.696,75.838 580.696,71.902 C580.696,68.014 580.516,64.426 580.156,61.138 C579.796,57.85 579.004,55.03 577.78,52.678 C576.592499,50.364059 574.75261,48.4490719 572.488,47.17 C570.184,45.85 567.088,45.19 563.2,45.19 C559.312,45.19 556.216,45.85 553.912,47.17 C551.64739,48.4490719 549.807501,50.364059 548.62,52.678 C547.396,55.03 546.604,57.85 546.244,61.138 C545.884,64.426 545.704,68.014 545.704,71.902 C545.704,75.838 545.884,79.438 546.244,82.702 C546.604,85.966 547.396,88.774 548.62,91.126 C549.844,93.478 551.608,95.278 553.912,96.526 C556.216,97.774 559.312,98.398 563.2,98.398 L563.2,98.398 Z M563.2,90.982 C561.664,90.982 560.428,90.634 559.492,89.938 C558.556,89.242 557.836,88.138 557.332,86.626 C556.828,85.114 556.492,83.146 556.324,80.722 C556.156,78.298 556.072,75.358 556.072,71.902 C556.072,68.446 556.156,65.518 556.324,63.118 C556.492,60.718 556.828,58.75 557.332,57.214 C557.836,55.678 558.556,54.562 559.492,53.866 C560.428,53.17 561.664,52.822 563.2,52.822 C564.736,52.822 565.972,53.17 566.908,53.866 C567.844,54.562 568.564,55.678 569.068,57.214 C569.572,58.75 569.908,60.718 570.076,63.118 C570.244,65.518 570.328,68.446 570.328,71.902 C570.328,75.358 570.244,78.298 570.076,80.722 C569.908,83.146 569.572,85.114 569.068,86.626 C568.564,88.138 567.844,89.242 566.908,89.938 C565.972,90.634 564.736,90.982 563.2,90.982 Z M609.68,97.606 L609.68,54.694 L620.912,54.694 L620.912,46.198 L588.08,46.198 L588.08,54.694 L599.312,54.694 L599.312,97.606 L609.68,97.606 Z M227.046,16.606 L227.046,9.798 L232.037,9.798 C236.453,9.798 238.339,7.866 238.339,4.784 C238.339,1.817 236.292,0 231.646,0 L223.826,0 L223.826,16.606 L227.046,16.606 Z M231.393,7.475 L227.046,7.475 L227.046,2.323 L231.278,2.323 C233.9,2.323 234.981,3.266 234.981,4.784 C234.981,6.601 233.808,7.475 231.393,7.475 Z M254.853,16.606 L254.853,14.214 L244.779,14.214 L244.779,9.315 L254.002,9.315 L254.002,6.923 L244.779,6.923 L244.779,2.392 L254.6,2.392 L254.6,0 L241.559,0 L241.559,16.606 L254.853,16.606 Z M261.661,16.606 L261.661,9.568 L265.939,9.568 C268.4,9.568 269.09,9.798 269.573,11.707 L270.079,13.754 C270.263,14.467 270.47,15.709 270.677,16.606 L274.104,16.606 C273.943,16.284 273.713,15.433 273.552,14.536 L272.954,11.684 C272.517,9.108 271.413,8.556 269.412,8.395 C270.171,8.28 273.391,7.429 273.391,4.462 C273.391,1.748 271.551,0 267.204,0 L258.441,0 L258.441,16.606 L261.661,16.606 L261.661,16.606 Z M266.445,7.245 L261.661,7.245 L261.661,2.323 L266.445,2.323 C268.998,2.323 270.079,3.036 270.079,4.761 C270.079,6.555 268.998,7.245 266.445,7.245 L266.445,7.245 Z M280.452,16.606 L280.452,2.093 L287.237,16.606 L290.756,16.606 L297.541,2.093 L297.541,16.606 L300.669,16.606 L300.669,0 L295.586,0 L289.146,13.938 L282.683,0 L277.577,0 L277.577,16.606 L280.452,16.606 L280.452,16.606 Z M306.465,16.606 L308.42,12.627 L318.448,12.627 L320.38,16.606 L324.037,16.606 L315.458,0 L311.64,0 L303.015,16.606 L306.465,16.606 L306.465,16.606 Z M317.321,10.35 L309.57,10.35 L313.457,2.392 L317.321,10.35 Z M329.281,16.606 L329.281,2.852 L338.642,16.606 L343.058,16.606 L343.058,0 L340.16,0 L340.16,13.754 L330.799,0 L326.383,0 L326.383,16.606 L329.281,16.606 L329.281,16.606 Z M360.86,16.606 L360.86,14.214 L350.786,14.214 L350.786,9.315 L360.009,9.315 L360.009,6.923 L350.786,6.923 L350.786,2.392 L360.607,2.392 L360.607,0 L347.566,0 L347.566,16.606 L360.86,16.606 Z M367.346,16.606 L367.346,2.852 L376.707,16.606 L381.123,16.606 L381.123,0 L378.225,0 L378.225,13.754 L368.864,0 L364.448,0 L364.448,16.606 L367.346,16.606 L367.346,16.606 Z M393.589,16.606 L393.589,2.415 L400.42,2.415 L400.42,0 L383.561,0 L383.561,2.415 L390.369,2.415 L390.369,16.606 L393.589,16.606 L393.589,16.606 Z M191.373,144.606 L195.927,130.369 L200.504,144.606 L204.69,144.606 L210.118,128 L206.875,128 L202.758,142.352 L198.066,128 L193.972,128 L189.418,142.352 L185.186,128 L181.759,128 L187.187,144.606 L191.373,144.606 Z M225.942,144.606 L225.942,142.214 L215.868,142.214 L215.868,137.315 L225.091,137.315 L225.091,134.923 L215.868,134.923 L215.868,130.392 L225.689,130.392 L225.689,128 L212.648,128 L212.648,144.606 L225.942,144.606 L225.942,144.606 Z M238.408,144.606 C243.169,144.606 244.917,142.421 244.917,139.96 C244.917,137.729 243.353,136.28 240.869,135.935 C243.307,135.383 244.273,134.026 244.273,132.163 C244.273,129.541 242.502,128 237.925,128 L229.53,128 L229.53,144.606 L238.408,144.606 Z M237.902,134.923 L232.704,134.923 L232.704,130.3 L237.373,130.3 C240.156,130.3 241.007,131.128 241.007,132.6 C241.007,134.21 239.926,134.923 237.902,134.923 L237.902,134.923 Z M237.948,142.306 L232.704,142.306 L232.704,137.177 L237.856,137.177 C240.202,137.177 241.559,137.982 241.559,139.776 C241.559,141.34 240.616,142.306 237.948,142.306 Z M265.962,144.606 C270.723,144.606 272.471,142.421 272.471,139.96 C272.471,137.729 270.907,136.28 268.423,135.935 C270.861,135.383 271.827,134.026 271.827,132.163 C271.827,129.541 270.056,128 265.479,128 L257.084,128 L257.084,144.606 L265.962,144.606 L265.962,144.606 Z M265.456,134.923 L260.258,134.923 L260.258,130.3 L264.927,130.3 C267.71,130.3 268.561,131.128 268.561,132.6 C268.561,134.21 267.48,134.923 265.456,134.923 L265.456,134.923 Z M265.502,142.306 L260.258,142.306 L260.258,137.177 L265.41,137.177 C267.756,137.177 269.113,137.982 269.113,139.776 C269.113,141.34 268.17,142.306 265.502,142.306 L265.502,142.306 Z M284.615,145.043 C291.515,145.043 294.137,140.719 294.137,136.303 C294.137,131.749 291.561,127.563 284.615,127.563 C277.784,127.563 275.093,131.887 275.093,136.303 C275.093,140.765 277.439,145.043 284.615,145.043 Z M284.615,142.674 C280.567,142.674 278.451,140.098 278.451,136.303 C278.451,132.508 280.728,129.932 284.615,129.932 C288.594,129.932 290.779,132.37 290.779,136.303 C290.779,140.006 288.64,142.674 284.615,142.674 Z M306.235,145.043 C313.135,145.043 315.757,140.719 315.757,136.303 C315.757,131.749 313.181,127.563 306.235,127.563 C299.404,127.563 296.713,131.887 296.713,136.303 C296.713,140.765 299.059,145.043 306.235,145.043 Z M306.235,142.674 C302.187,142.674 300.071,140.098 300.071,136.303 C300.071,132.508 302.348,129.932 306.235,129.932 C310.214,129.932 312.399,132.37 312.399,136.303 C312.399,140.006 310.26,142.674 306.235,142.674 Z M335.675,144.606 L326.452,135.498 L334.916,128 L330.799,128 L322.634,135.521 L331.305,144.606 L335.675,144.606 L335.675,144.606 Z M322.519,144.606 L322.519,128 L319.299,128 L319.299,144.606 L322.519,144.606 L322.519,144.606 Z M340.827,144.606 L340.827,130.093 L347.612,144.606 L351.131,144.606 L357.916,130.093 L357.916,144.606 L361.044,144.606 L361.044,128 L355.961,128 L349.521,141.938 L343.058,128 L337.952,128 L337.952,144.606 L340.827,144.606 L340.827,144.606 Z M366.84,144.606 L368.795,140.627 L378.823,140.627 L380.755,144.606 L384.412,144.606 L375.833,128 L372.015,128 L363.39,144.606 L366.84,144.606 L366.84,144.606 Z M377.696,138.35 L369.945,138.35 L373.832,130.392 L377.696,138.35 Z M389.978,144.606 L389.978,137.568 L394.256,137.568 C396.717,137.568 397.407,137.798 397.89,139.707 L398.396,141.754 C398.58,142.467 398.787,143.709 398.994,144.606 L402.421,144.606 C402.26,144.284 402.03,143.433 401.869,142.536 L401.271,139.684 C400.834,137.108 399.73,136.556 397.729,136.395 C398.488,136.28 401.708,135.429 401.708,132.462 C401.708,129.748 399.868,128 395.521,128 L386.758,128 L386.758,144.606 L389.978,144.606 L389.978,144.606 Z M394.762,135.245 L389.978,135.245 L389.978,130.323 L394.762,130.323 C397.315,130.323 398.396,131.036 398.396,132.761 C398.396,134.555 397.315,135.245 394.762,135.245 Z M422.27,144.606 L413.047,135.498 L421.511,128 L417.394,128 L409.229,135.521 L417.9,144.606 L422.27,144.606 L422.27,144.606 Z M409.114,144.606 L409.114,128 L405.894,128 L405.894,144.606 L409.114,144.606 Z M431.332,145.043 C436.001,145.043 439.405,143.433 439.405,139.684 C439.405,136.533 436.967,135.728 434.276,135.245 L430.32,134.532 C428.342,134.187 427.238,133.727 427.238,132.439 C427.238,130.829 428.894,129.909 431.401,129.909 C433.586,129.909 435.449,130.415 435.656,132.531 L438.945,132.531 C438.784,128.897 435.403,127.563 431.447,127.563 C427.192,127.563 424.018,129.265 424.018,132.715 C424.018,135.682 426.41,136.648 429.032,137.131 L433.034,137.867 C435.104,138.258 436.162,138.741 436.162,140.052 C436.162,141.593 434.644,142.697 431.401,142.697 C428.756,142.697 426.916,141.685 426.847,139.5 L423.535,139.5 C423.742,142.904 425.904,145.043 431.332,145.043 Z" id="Shape"></path>
                </g>
                <g id="Group" transform="translate(472.000075, 117.000000) rotate(-90.000000) translate(-472.000075, -117.000000) translate(406.000075, 89.999900)">
                    <path d="M69.57,0.619024727 C82.642,3.42402473 109.132,13.6850247 116.253,17.3400247 L118.005,18.2570247 L122.393,20.4490247 C127.659,23.1350247 132,26.0070247 132,32.3090247 L131.992,34.5810247 L131.966,36.0420247 C131.792,42.7590247 130.723,48.0120247 124.208,50.9130247 C120.389,52.6140247 94.74,53.6130247 68.055,53.9640247 L67.423,53.9940247 L66.771,53.9990247 L66.002,53.9890247 L65.229,53.9990247 C64.788,54.0040247 64.359,53.9930247 63.941,53.9670247 L54.828,53.8200247 C31.661,53.3750247 11.173,52.4200247 7.792,50.9130247 C0.812,47.8050247 0.083,41.9960247 0.008,34.5810247 L0,32.3090247 C0,24.0610247 7.437,21.6890247 14.652,17.9180247 L15.307,17.5710247 C21.699,14.1390247 49.07,3.48502473 62.43,0.621024727 C63.271,0.434024727 65.391,-0.0599752726 65.985,0.00602472742 C66.598,-0.0599752726 68.759,0.456024727 69.569,0.619024727 L69.57,0.619024727 Z" id="Path" fill-opacity="0.35" fill="#FFFFFF"></path>
                    <g transform="translate(13.436000, 6.000025)" fill="#052D4A">
                        <polygon id="Path" points="39.779 20.903 36.589 6.662 44.105 15.184 46.791 0 52.776 14.396 58.761 0 61.447 15.184 68.964 6.662 65.774 20.902 39.779 20.902"></polygon>
                        <path d="M2.006,38.82 L2.006,28.738 L6.741,38.818 L9.196,38.818 L13.931,28.738 L13.931,38.818 L16.114,38.818 L16.114,27.285 L12.567,27.285 L8.073,36.966 L3.563,27.285 L5.55111512e-17,27.285 L5.55111512e-17,38.819 L2.006,38.819 L2.006,38.82 Z M24.813,39.123 C27.846,39.123 30.383,38.133 30.623,35.369 L28.199,35.369 C27.975,36.807 26.594,37.477 25.038,37.477 C22.486,37.477 20.928,36.04 20.928,33.037 C20.928,30.177 22.534,28.627 25.086,28.627 C26.61,28.627 27.83,29.154 28.087,30.576 L30.495,30.576 C30.398,28.26 28.007,26.981 25.182,26.981 C20.64,26.981 18.585,29.809 18.585,33.052 C18.585,36.727 20.736,39.123 24.813,39.123 L24.813,39.123 Z M39.29,39.123 C41.28,39.123 43.014,38.835 44.907,38.228 L44.907,32.685 L39.274,32.685 L39.274,34.282 L42.757,34.282 L42.757,36.902 C41.794,37.254 40.477,37.493 39.37,37.493 C36.112,37.493 34.571,35.673 34.571,33.02 C34.571,30.48 36.128,28.611 39.129,28.611 C40.847,28.611 42.195,29.091 42.484,30.496 L44.844,30.496 C44.57,27.94 42.163,26.981 39.017,26.981 C34.571,26.981 32.228,29.57 32.228,33.021 C32.228,36.759 34.668,39.123 39.29,39.123 L39.29,39.123 Z M53.237,39.123 C56.657,39.123 58.919,37.493 58.919,33.963 L58.919,27.285 L56.672,27.285 L56.672,33.963 C56.672,36.183 55.565,37.477 53.237,37.477 C50.958,37.477 49.787,36.311 49.787,34.091 L49.787,27.285 L47.54,27.285 L47.54,34.107 C47.54,37.637 49.674,39.123 53.237,39.123 L53.237,39.123 Z M64.216,38.819 L64.216,27.285 L61.969,27.285 L61.969,38.819 L64.216,38.819 L64.216,38.819 Z M69.608,38.819 L69.608,33.931 L72.594,33.931 C74.311,33.931 74.793,34.091 75.13,35.417 L75.483,36.838 C75.611,37.334 75.756,38.196 75.9,38.819 L78.291,38.819 C78.179,38.596 78.019,38.005 77.906,37.382 L77.489,35.401 C77.184,33.611 76.414,33.228 75.017,33.116 C75.547,33.036 77.794,32.446 77.794,30.384 C77.794,28.499 76.51,27.285 73.476,27.285 L67.361,27.285 L67.361,38.819 L69.608,38.819 L69.608,38.819 Z M72.947,32.317 L69.608,32.317 L69.608,28.9 L72.947,28.9 C74.728,28.9 75.483,29.395 75.483,30.593 C75.483,31.839 74.728,32.318 72.947,32.318 L72.947,32.317 Z M89.992,38.819 L89.992,37.158 L82.962,37.158 L82.962,33.755 L89.398,33.755 L89.398,32.094 L82.962,32.094 L82.962,28.946 L89.815,28.946 L89.815,27.285 L80.715,27.285 L80.715,38.819 L89.992,38.819 Z M93.844,31.039 L95.609,27.285 L93.33,27.285 L92.175,31.039 L93.844,31.039 Z M103.169,39.123 C106.427,39.123 108.803,38.005 108.803,35.401 C108.803,33.212 107.101,32.653 105.223,32.317 L102.463,31.822 C101.083,31.582 100.313,31.262 100.313,30.368 C100.313,29.25 101.468,28.611 103.217,28.611 C104.742,28.611 106.042,28.962 106.187,30.432 L108.482,30.432 C108.369,27.908 106.01,26.982 103.249,26.982 C100.28,26.982 98.065,28.164 98.065,30.56 C98.065,32.62 99.735,33.292 101.564,33.627 L104.357,34.139 C105.801,34.41 106.539,34.746 106.539,35.656 C106.539,36.726 105.48,37.493 103.217,37.493 C101.371,37.493 100.087,36.791 100.039,35.273 L97.728,35.273 C97.872,37.637 99.381,39.123 103.169,39.123 L103.169,39.123 Z" id="Shape"></path>
                    </g>
                </g>
            </g>
        </g>
    </g>
</svg>