<?xml version="1.0" encoding="UTF-8"?>
<svg width="1036px" height="224px" viewBox="0 0 1036 224" version="1.1" xmlns="http://www.w3.org/2000/svg" xmlns:xlink="http://www.w3.org/1999/xlink">
    <!-- Generator: Sketch 62 (91390) - https://sketch.com -->
    <title>Slice</title>
    <desc>Created with Sketch.</desc>
    <g id="Page-1" stroke="none" stroke-width="1" fill="none" fill-rule="evenodd">
        <rect id="Rectangle" stroke="#EEEEEE" stroke-width="20" fill="#142449" x="-327" y="-10" width="1194" height="224"></rect>
        <g id="Group-3" transform="translate(60.000000, 0.000000)" fill="#385281" stroke="#EEEEEE" stroke-linecap="square" stroke-width="20">
            <path d="M-10.7375643,102.06947 C13.1924333,38.1080003 58.5065669,0.757810547 125.18959,-10 L828.810407,-10.0000001 C893.553787,0.444824923 938.144781,35.9640847 962.591687,96.5474297 L964.737564,101.93053 C940.807567,165.892 895.493433,203.242189 828.81041,214 L125.189593,214 C60.4462069,203.555174 15.855211,168.035909 -8.59169351,107.452554 L-10.7375643,102.06947 Z" id="Path"></path>
        </g>
        <g id="Group-4" transform="translate(222.000000, 31.000000)" fill="#FFFFFF" fill-rule="nonzero">
            <path d="M21.408,98 C24.432,98 26.964,97.592 29.004,96.776 C31.044,95.96 32.7,94.868 33.972,93.5 C35.244,92.132 36.144,90.536 36.672,88.712 C37.2,86.888 37.464,84.968 37.464,82.952 C37.464,79.496 36.624,76.736 34.944,74.672 C33.264,72.608 30.984,71.384 28.104,71 L28.104,70.856 C30.696,70.136 32.64,68.78 33.936,66.788 C35.232,64.796 35.88,62.408 35.88,59.624 C35.88,57.176 35.52,55.112 34.8,53.432 C34.08,51.752 33.072,50.408 31.776,49.4 C30.48,48.392 28.932,47.672 27.132,47.24 C25.332,46.808 23.376,46.592 21.264,46.592 L3.912,46.592 L3.912,98 L21.408,98 Z M17.232,67.688 L14.28,67.688 L14.28,54.224 L18.024,54.224 C20.616,54.224 22.512,54.728 23.712,55.736 C24.912,56.744 25.512,58.472 25.512,60.92 C25.512,63.368 24.852,65.108 23.532,66.14 C22.212,67.172 20.112,67.688 17.232,67.688 Z M18.312,90.368 L14.28,90.368 L14.28,74.888 L18.744,74.888 C19.896,74.888 20.952,75.008 21.912,75.248 C22.872,75.488 23.7,75.908 24.396,76.508 C25.092,77.108 25.644,77.9 26.052,78.884 C26.46,79.868 26.664,81.104 26.664,82.592 C26.664,85.568 25.896,87.608 24.36,88.712 C22.824,89.816 20.808,90.368 18.312,90.368 Z M64.36,98.792 C68.248,98.792 71.344,98.168 73.648,96.92 C75.952,95.672 77.716,93.872 78.94,91.52 C80.164,89.168 80.956,86.36 81.316,83.096 C81.676,79.832 81.856,76.232 81.856,72.296 C81.856,68.408 81.676,64.82 81.316,61.532 C80.956,58.244 80.164,55.424 78.94,53.072 C77.716,50.72 75.952,48.884 73.648,47.564 C71.344,46.244 68.248,45.584 64.36,45.584 C60.472,45.584 57.376,46.244 55.072,47.564 C52.768,48.884 51.004,50.72 49.78,53.072 C48.556,55.424 47.764,58.244 47.404,61.532 C47.044,64.82 46.864,68.408 46.864,72.296 C46.864,76.232 47.044,79.832 47.404,83.096 C47.764,86.36 48.556,89.168 49.78,91.52 C51.004,93.872 52.768,95.672 55.072,96.92 C57.376,98.168 60.472,98.792 64.36,98.792 Z M64.36,91.376 C62.824,91.376 61.588,91.028 60.652,90.332 C59.716,89.636 58.996,88.532 58.492,87.02 C57.988,85.508 57.652,83.54 57.484,81.116 C57.316,78.692 57.232,75.752 57.232,72.296 C57.232,68.84 57.316,65.912 57.484,63.512 C57.652,61.112 57.988,59.144 58.492,57.608 C58.996,56.072 59.716,54.956 60.652,54.26 C61.588,53.564 62.824,53.216 64.36,53.216 C65.896,53.216 67.132,53.564 68.068,54.26 C69.004,54.956 69.724,56.072 70.228,57.608 C70.732,59.144 71.068,61.112 71.236,63.512 C71.404,65.912 71.488,68.84 71.488,72.296 C71.488,75.752 71.404,78.692 71.236,81.116 C71.068,83.54 70.732,85.508 70.228,87.02 C69.724,88.532 69.004,89.636 68.068,90.332 C67.132,91.028 65.896,91.376 64.36,91.376 Z M108.392,98.792 C112.28,98.792 115.376,98.168 117.68,96.92 C119.984,95.672 121.748,93.872 122.972,91.52 C124.196,89.168 124.988,86.36 125.348,83.096 C125.708,79.832 125.888,76.232 125.888,72.296 C125.888,68.408 125.708,64.82 125.348,61.532 C124.988,58.244 124.196,55.424 122.972,53.072 C121.748,50.72 119.984,48.884 117.68,47.564 C115.376,46.244 112.28,45.584 108.392,45.584 C104.504,45.584 101.408,46.244 99.104,47.564 C96.8,48.884 95.036,50.72 93.812,53.072 C92.588,55.424 91.796,58.244 91.436,61.532 C91.076,64.82 90.896,68.408 90.896,72.296 C90.896,76.232 91.076,79.832 91.436,83.096 C91.796,86.36 92.588,89.168 93.812,91.52 C95.036,93.872 96.8,95.672 99.104,96.92 C101.408,98.168 104.504,98.792 108.392,98.792 Z M108.392,91.376 C106.856,91.376 105.62,91.028 104.684,90.332 C103.748,89.636 103.028,88.532 102.524,87.02 C102.02,85.508 101.684,83.54 101.516,81.116 C101.348,78.692 101.264,75.752 101.264,72.296 C101.264,68.84 101.348,65.912 101.516,63.512 C101.684,61.112 102.02,59.144 102.524,57.608 C103.028,56.072 103.748,54.956 104.684,54.26 C105.62,53.564 106.856,53.216 108.392,53.216 C109.928,53.216 111.164,53.564 112.1,54.26 C113.036,54.956 113.756,56.072 114.26,57.608 C114.764,59.144 115.1,61.112 115.268,63.512 C115.436,65.912 115.52,68.84 115.52,72.296 C115.52,75.752 115.436,78.692 115.268,81.116 C115.1,83.54 114.764,85.508 114.26,87.02 C113.756,88.532 113.036,89.636 112.1,90.332 C111.164,91.028 109.928,91.376 108.392,91.376 Z M146.376,98 L146.376,82.736 L150.192,76.904 L160.776,98 L172.44,98 L156.888,68.624 L170.856,46.592 L159.624,46.592 L146.52,67.184 L146.376,67.184 L146.376,46.592 L136.008,46.592 L136.008,98 L146.376,98 Z M188.392,98 L188.392,56.96 L188.536,56.96 L197.68,98 L205.744,98 L214.888,56.96 L215.032,56.96 L215.032,98 L224.536,98 L224.536,46.592 L209.2,46.592 L201.784,82.88 L201.64,82.88 L194.296,46.592 L178.888,46.592 L178.888,98 L188.392,98 Z M243.152,98 L245.528,87.128 L259.208,87.128 L261.584,98 L272.384,98 L258.776,46.592 L245.96,46.592 L232.352,98 L243.152,98 Z M257.408,78.632 L247.328,78.632 L252.296,55.52 L252.44,55.52 L257.408,78.632 Z M290.352,98 L290.352,76.256 L295.896,76.256 C298.056,76.256 299.592,76.832 300.504,77.984 C301.416,79.136 301.92,80.72 302.016,82.736 L302.304,92.6 C302.352,93.608 302.448,94.58 302.592,95.516 C302.736,96.452 303.072,97.28 303.6,98 L314.832,98 L314.832,97.568 C313.872,97.04 313.248,96.056 312.96,94.616 C312.768,93.176 312.624,91.088 312.528,88.352 C312.48,86.96 312.432,85.7 312.384,84.572 C312.336,83.444 312.264,82.4 312.168,81.44 C311.88,78.56 311.136,76.472 309.936,75.176 C308.736,73.88 306.84,73.04 304.248,72.656 L304.248,72.512 C307.176,71.888 309.336,70.484 310.728,68.3 C312.12,66.116 312.816,63.296 312.816,59.84 C312.816,55.376 311.616,52.052 309.216,49.868 C306.816,47.684 303.456,46.592 299.136,46.592 L279.984,46.592 L279.984,98 L290.352,98 Z M294.672,69.056 L290.352,69.056 L290.352,54.224 L295.248,54.224 C300.048,54.224 302.448,56.6 302.448,61.352 C302.448,64.136 301.776,66.116 300.432,67.292 C299.088,68.468 297.168,69.056 294.672,69.056 Z M334.384,98 L334.384,82.736 L338.2,76.904 L348.784,98 L360.448,98 L344.896,68.624 L358.864,46.592 L347.632,46.592 L334.528,67.184 L334.384,67.184 L334.384,46.592 L324.016,46.592 L324.016,98 L334.384,98 Z M381.008,98.792 C386.624,98.792 391.004,97.556 394.148,95.084 C397.292,92.612 398.864,88.664 398.864,83.24 C398.864,81.656 398.72,80.216 398.432,78.92 C398.144,77.624 397.628,76.436 396.884,75.356 C396.14,74.276 395.144,73.268 393.896,72.332 C392.648,71.396 391.04,70.496 389.072,69.632 L381.08,66.176 C378.872,65.264 377.432,64.268 376.76,63.188 C376.088,62.108 375.752,60.776 375.752,59.192 C375.752,58.424 375.836,57.68 376.004,56.96 C376.172,56.24 376.484,55.604 376.94,55.052 C377.396,54.5 378.008,54.056 378.776,53.72 C379.544,53.384 380.504,53.216 381.656,53.216 C383.672,53.216 385.112,53.876 385.976,55.196 C386.84,56.516 387.272,58.4 387.272,60.848 L397.208,60.848 L397.208,59.408 C397.208,56.96 396.812,54.86 396.02,53.108 C395.228,51.356 394.124,49.916 392.708,48.788 C391.292,47.66 389.612,46.844 387.668,46.34 C385.724,45.836 383.6,45.584 381.296,45.584 C376.352,45.584 372.464,46.832 369.632,49.328 C366.8,51.824 365.384,55.616 365.384,60.704 C365.384,62.816 365.648,64.676 366.176,66.284 C366.704,67.892 367.532,69.308 368.66,70.532 C369.788,71.756 371.192,72.824 372.872,73.736 C374.552,74.648 376.544,75.488 378.848,76.256 C380.576,76.832 382.028,77.396 383.204,77.948 C384.38,78.5 385.328,79.112 386.048,79.784 C386.768,80.456 387.284,81.212 387.596,82.052 C387.908,82.892 388.064,83.888 388.064,85.04 C388.064,87.2 387.428,88.796 386.156,89.828 C384.884,90.86 383.456,91.376 381.872,91.376 C380.528,91.376 379.412,91.184 378.524,90.8 C377.636,90.416 376.928,89.888 376.4,89.216 C375.872,88.544 375.512,87.716 375.32,86.732 C375.128,85.748 375.032,84.656 375.032,83.456 L375.032,81.944 L364.664,81.944 L364.664,84.032 C364.664,88.784 365.924,92.432 368.444,94.976 C370.964,97.52 375.152,98.792 381.008,98.792 Z M427.92,81.44 L427.92,72.944 L407.616,72.944 L407.616,81.44 L427.92,81.44 Z M445.888,98 L448.264,87.128 L461.944,87.128 L464.32,98 L475.12,98 L461.512,46.592 L448.696,46.592 L435.088,98 L445.888,98 Z M460.144,78.632 L450.064,78.632 L455.032,55.52 L455.176,55.52 L460.144,78.632 Z M502.592,81.44 L502.592,72.944 L482.288,72.944 L482.288,81.44 L502.592,81.44 Z M542.088,98 L542.088,89.504 L523.728,89.504 L523.728,46.592 L513.36,46.592 L513.36,98 L542.088,98 Z M567.112,98.792 C571,98.792 574.096,98.168 576.4,96.92 C578.704,95.672 580.468,93.872 581.692,91.52 C582.916,89.168 583.708,86.36 584.068,83.096 C584.428,79.832 584.608,76.232 584.608,72.296 C584.608,68.408 584.428,64.82 584.068,61.532 C583.708,58.244 582.916,55.424 581.692,53.072 C580.468,50.72 578.704,48.884 576.4,47.564 C574.096,46.244 571,45.584 567.112,45.584 C563.224,45.584 560.128,46.244 557.824,47.564 C555.52,48.884 553.756,50.72 552.532,53.072 C551.308,55.424 550.516,58.244 550.156,61.532 C549.796,64.82 549.616,68.408 549.616,72.296 C549.616,76.232 549.796,79.832 550.156,83.096 C550.516,86.36 551.308,89.168 552.532,91.52 C553.756,93.872 555.52,95.672 557.824,96.92 C560.128,98.168 563.224,98.792 567.112,98.792 Z M567.112,91.376 C565.576,91.376 564.34,91.028 563.404,90.332 C562.468,89.636 561.748,88.532 561.244,87.02 C560.74,85.508 560.404,83.54 560.236,81.116 C560.068,78.692 559.984,75.752 559.984,72.296 C559.984,68.84 560.068,65.912 560.236,63.512 C560.404,61.112 560.74,59.144 561.244,57.608 C561.748,56.072 562.468,54.956 563.404,54.26 C564.34,53.564 565.576,53.216 567.112,53.216 C568.648,53.216 569.884,53.564 570.82,54.26 C571.756,54.956 572.476,56.072 572.98,57.608 C573.484,59.144 573.82,61.112 573.988,63.512 C574.156,65.912 574.24,68.84 574.24,72.296 C574.24,75.752 574.156,78.692 573.988,81.116 C573.82,83.54 573.484,85.508 572.98,87.02 C572.476,88.532 571.756,89.636 570.82,90.332 C569.884,91.028 568.648,91.376 567.112,91.376 Z M613.592,98 L613.592,55.088 L624.824,55.088 L624.824,46.592 L591.992,46.592 L591.992,55.088 L603.224,55.088 L603.224,98 L613.592,98 Z" id="BOOKMARKS-A-LOT"></path>
            <path d="M230.958,17 L230.958,10.192 L235.949,10.192 C240.365,10.192 242.251,8.26 242.251,5.178 C242.251,2.211 240.204,0.394 235.558,0.394 L227.738,0.394 L227.738,17 L230.958,17 Z M235.305,7.869 L230.958,7.869 L230.958,2.717 L235.19,2.717 C237.812,2.717 238.893,3.66 238.893,5.178 C238.893,6.995 237.72,7.869 235.305,7.869 Z M258.765,17 L258.765,14.608 L248.691,14.608 L248.691,9.709 L257.914,9.709 L257.914,7.317 L248.691,7.317 L248.691,2.786 L258.512,2.786 L258.512,0.394 L245.471,0.394 L245.471,17 L258.765,17 Z M265.573,17 L265.573,9.962 L269.851,9.962 C272.312,9.962 273.002,10.192 273.485,12.101 L273.991,14.148 C274.175,14.861 274.382,16.103 274.589,17 L278.016,17 C277.855,16.678 277.625,15.827 277.464,14.93 L276.866,12.078 C276.429,9.502 275.325,8.95 273.324,8.789 C274.083,8.674 277.303,7.823 277.303,4.856 C277.303,2.142 275.463,0.394 271.116,0.394 L262.353,0.394 L262.353,17 L265.573,17 Z M270.357,7.639 L265.573,7.639 L265.573,2.717 L270.357,2.717 C272.91,2.717 273.991,3.43 273.991,5.155 C273.991,6.949 272.91,7.639 270.357,7.639 Z M284.364,17 L284.364,2.487 L291.149,17 L294.668,17 L301.453,2.487 L301.453,17 L304.581,17 L304.581,0.394 L299.498,0.394 L293.058,14.332 L286.595,0.394 L281.489,0.394 L281.489,17 L284.364,17 Z M310.377,17 L312.332,13.021 L322.36,13.021 L324.292,17 L327.949,17 L319.37,0.394 L315.552,0.394 L306.927,17 L310.377,17 Z M321.233,10.744 L313.482,10.744 L317.369,2.786 L321.233,10.744 Z M333.193,17 L333.193,3.246 L342.554,17 L346.97,17 L346.97,0.394 L344.072,0.394 L344.072,14.148 L334.711,0.394 L330.295,0.394 L330.295,17 L333.193,17 Z M364.772,17 L364.772,14.608 L354.698,14.608 L354.698,9.709 L363.921,9.709 L363.921,7.317 L354.698,7.317 L354.698,2.786 L364.519,2.786 L364.519,0.394 L351.478,0.394 L351.478,17 L364.772,17 Z M371.258,17 L371.258,3.246 L380.619,17 L385.035,17 L385.035,0.394 L382.137,0.394 L382.137,14.148 L372.776,0.394 L368.36,0.394 L368.36,17 L371.258,17 Z M397.501,17 L397.501,2.809 L404.332,2.809 L404.332,0.394 L387.473,0.394 L387.473,2.809 L394.281,2.809 L394.281,17 L397.501,17 Z" id="PERMANENT"></path>
            <path d="M195.285,145 L199.839,130.763 L204.416,145 L208.602,145 L214.03,128.394 L210.787,128.394 L206.67,142.746 L201.978,128.394 L197.884,128.394 L193.33,142.746 L189.098,128.394 L185.671,128.394 L191.099,145 L195.285,145 Z M229.854,145 L229.854,142.608 L219.78,142.608 L219.78,137.709 L229.003,137.709 L229.003,135.317 L219.78,135.317 L219.78,130.786 L229.601,130.786 L229.601,128.394 L216.56,128.394 L216.56,145 L229.854,145 Z M242.32,145 C247.081,145 248.829,142.815 248.829,140.354 C248.829,138.123 247.265,136.674 244.781,136.329 C247.219,135.777 248.185,134.42 248.185,132.557 C248.185,129.935 246.414,128.394 241.837,128.394 L233.442,128.394 L233.442,145 L242.32,145 Z M241.814,135.317 L236.616,135.317 L236.616,130.694 L241.285,130.694 C244.068,130.694 244.919,131.522 244.919,132.994 C244.919,134.604 243.838,135.317 241.814,135.317 Z M241.86,142.7 L236.616,142.7 L236.616,137.571 L241.768,137.571 C244.114,137.571 245.471,138.376 245.471,140.17 C245.471,141.734 244.528,142.7 241.86,142.7 Z M269.874,145 C274.635,145 276.383,142.815 276.383,140.354 C276.383,138.123 274.819,136.674 272.335,136.329 C274.773,135.777 275.739,134.42 275.739,132.557 C275.739,129.935 273.968,128.394 269.391,128.394 L260.996,128.394 L260.996,145 L269.874,145 Z M269.368,135.317 L264.17,135.317 L264.17,130.694 L268.839,130.694 C271.622,130.694 272.473,131.522 272.473,132.994 C272.473,134.604 271.392,135.317 269.368,135.317 Z M269.414,142.7 L264.17,142.7 L264.17,137.571 L269.322,137.571 C271.668,137.571 273.025,138.376 273.025,140.17 C273.025,141.734 272.082,142.7 269.414,142.7 Z M288.527,145.437 C295.427,145.437 298.049,141.113 298.049,136.697 C298.049,132.143 295.473,127.957 288.527,127.957 C281.696,127.957 279.005,132.281 279.005,136.697 C279.005,141.159 281.351,145.437 288.527,145.437 Z M288.527,143.068 C284.479,143.068 282.363,140.492 282.363,136.697 C282.363,132.902 284.64,130.326 288.527,130.326 C292.506,130.326 294.691,132.764 294.691,136.697 C294.691,140.4 292.552,143.068 288.527,143.068 Z M310.147,145.437 C317.047,145.437 319.669,141.113 319.669,136.697 C319.669,132.143 317.093,127.957 310.147,127.957 C303.316,127.957 300.625,132.281 300.625,136.697 C300.625,141.159 302.971,145.437 310.147,145.437 Z M310.147,143.068 C306.099,143.068 303.983,140.492 303.983,136.697 C303.983,132.902 306.26,130.326 310.147,130.326 C314.126,130.326 316.311,132.764 316.311,136.697 C316.311,140.4 314.172,143.068 310.147,143.068 Z M339.587,145 L330.364,135.892 L338.828,128.394 L334.711,128.394 L326.546,135.915 L335.217,145 L339.587,145 Z M326.431,145 L326.431,128.394 L323.211,128.394 L323.211,145 L326.431,145 Z M344.739,145 L344.739,130.487 L351.524,145 L355.043,145 L361.828,130.487 L361.828,145 L364.956,145 L364.956,128.394 L359.873,128.394 L353.433,142.332 L346.97,128.394 L341.864,128.394 L341.864,145 L344.739,145 Z M370.752,145 L372.707,141.021 L382.735,141.021 L384.667,145 L388.324,145 L379.745,128.394 L375.927,128.394 L367.302,145 L370.752,145 Z M381.608,138.744 L373.857,138.744 L377.744,130.786 L381.608,138.744 Z M393.89,145 L393.89,137.962 L398.168,137.962 C400.629,137.962 401.319,138.192 401.802,140.101 L402.308,142.148 C402.492,142.861 402.699,144.103 402.906,145 L406.333,145 C406.172,144.678 405.942,143.827 405.781,142.93 L405.183,140.078 C404.746,137.502 403.642,136.95 401.641,136.789 C402.4,136.674 405.62,135.823 405.62,132.856 C405.62,130.142 403.78,128.394 399.433,128.394 L390.67,128.394 L390.67,145 L393.89,145 Z M398.674,135.639 L393.89,135.639 L393.89,130.717 L398.674,130.717 C401.227,130.717 402.308,131.43 402.308,133.155 C402.308,134.949 401.227,135.639 398.674,135.639 Z M426.182,145 L416.959,135.892 L425.423,128.394 L421.306,128.394 L413.141,135.915 L421.812,145 L426.182,145 Z M413.026,145 L413.026,128.394 L409.806,128.394 L409.806,145 L413.026,145 Z M435.244,145.437 C439.913,145.437 443.317,143.827 443.317,140.078 C443.317,136.927 440.879,136.122 438.188,135.639 L434.232,134.926 C432.254,134.581 431.15,134.121 431.15,132.833 C431.15,131.223 432.806,130.303 435.313,130.303 C437.498,130.303 439.361,130.809 439.568,132.925 L442.857,132.925 C442.696,129.291 439.315,127.957 435.359,127.957 C431.104,127.957 427.93,129.659 427.93,133.109 C427.93,136.076 430.322,137.042 432.944,137.525 L436.946,138.261 C439.016,138.652 440.074,139.135 440.074,140.446 C440.074,141.987 438.556,143.091 435.313,143.091 C432.668,143.091 430.828,142.079 430.759,139.894 L427.447,139.894 C427.654,143.298 429.816,145.437 435.244,145.437 Z" id="WEBBOOKMARKS"></path>
        </g>
        <g id="Group-2" transform="translate(145.000000, 107.000000) rotate(-90.000000) translate(-145.000000, -107.000000) translate(79.000000, 80.000000)">
            <path d="M69.5704106,0.618906638 C82.6420682,3.42399297 109.132041,13.6853108 116.252976,17.3400691 L118.004632,18.256898 L122.392552,20.4492606 C127.65874,23.1353276 132,26.0074342 132,32.3093146 L131.991589,34.5810432 L131.96627,36.0423614 C131.791963,42.7588247 130.723203,48.0118399 124.208355,50.9133564 C120.388999,52.6143823 94.7395594,53.6138159 68.0553442,53.9641429 L67.4234532,53.9942343 L66.7708015,53.998788 C66.5146435,53.995869 66.2585132,53.9928906 66.0024289,53.9898527 L65.2291985,53.998788 C64.7877739,54.0038181 64.3583994,53.9931631 63.9408385,53.9673529 L54.8279424,53.8200428 C31.6611535,53.3751988 11.172714,52.4191826 7.7916446,50.9133564 C0.811450826,47.8045887 0.0831427568,41.9963965 0.0084106597,34.5810432 L0,32.3093146 C0,24.0608197 7.43746448,21.6882274 14.6516006,17.9177783 L15.3066028,17.570957 C21.6990556,14.1391857 49.0714871,3.485356 62.4305925,0.620401894 C63.2722778,0.433890495 65.3920312,-0.0603778943 65.9861186,0.00610663407 C66.5986359,-0.0597686989 68.760498,0.45626871 69.5704106,0.618906638 Z" id="Path" fill-opacity="0.35" fill="#FFFFFF"></path>
            <g id="Group" transform="translate(13.000000, 6.000000)" fill="#052D4A">
                <path d="M40.2147031,20.9027778 L37.025,6.6618155 L44.5407018,15.1844484 L47.2273072,-1.42108547e-14 L53.212,14.396 L59.1965445,-1.42108547e-14 L61.88315,15.1844484 L69.3988517,6.6618155 L66.2091487,20.9027778 L40.2147031,20.9027778 Z" id="Combined-Shape"></path>
                <path d="M2.441825,38.8194444 L2.441825,28.7387812 L7.176575,38.8194444 L9.632225,38.8194444 L14.366975,28.7387812 L14.366975,38.8194444 L16.549775,38.8194444 L16.549775,27.2849931 L13.002725,27.2849931 L8.508725,36.9662639 L3.998675,27.2849931 L0.435575,27.2849931 L0.435575,38.8194444 L2.441825,38.8194444 Z M25.248875,39.1229826 C28.282325,39.1229826 30.818225,38.1324896 31.058975,35.3686944 L28.635425,35.3686944 C28.410725,36.8065069 27.030425,37.4774861 25.473575,37.4774861 C22.921625,37.4774861 21.364775,36.0396736 21.364775,33.0362431 C21.364775,30.1765937 22.969775,28.6269514 25.521725,28.6269514 C27.046475,28.6269514 28.266275,29.1541493 28.523075,30.5759861 L30.930575,30.5759861 C30.834275,28.2595104 28.442825,26.9814549 25.618025,26.9814549 C21.075875,26.9814549 19.021475,29.8091528 19.021475,33.0522187 C19.021475,36.7266285 21.172175,39.1229826 25.248875,39.1229826 Z M39.725975,39.1229826 C41.716175,39.1229826 43.449575,38.8354201 45.343475,38.2283437 L45.343475,32.6847778 L39.709925,32.6847778 L39.709925,34.2823472 L43.192775,34.2823472 L43.192775,36.9023611 C42.229775,37.2538264 40.913675,37.4934618 39.806225,37.4934618 C36.548075,37.4934618 35.007275,35.6722326 35.007275,33.0202674 C35.007275,30.4801319 36.564125,28.6109757 39.565475,28.6109757 C41.282825,28.6109757 42.631025,29.0902465 42.919925,30.4961076 L45.279275,30.4961076 C45.006425,27.9399965 42.598925,26.9814549 39.453125,26.9814549 C35.007275,26.9814549 32.663975,29.5695174 32.663975,33.0202674 C32.663975,36.7585799 35.103575,39.1229826 39.725975,39.1229826 Z M53.673425,39.1229826 C57.092075,39.1229826 59.355125,37.4934618 59.355125,33.9628333 L59.355125,27.2849931 L57.108125,27.2849931 L57.108125,33.9628333 C57.108125,36.1834549 56.000675,37.4774861 53.673425,37.4774861 C51.394325,37.4774861 50.222675,36.3112604 50.222675,34.0906389 L50.222675,27.2849931 L47.975675,27.2849931 L47.975675,34.1066146 C47.975675,37.6372431 50.110325,39.1229826 53.673425,39.1229826 Z M64.651625,38.8194444 L64.651625,27.2849931 L62.404625,27.2849931 L62.404625,38.8194444 L64.651625,38.8194444 Z M70.044425,38.8194444 L70.044425,33.9308819 L73.029725,33.9308819 C74.747075,33.9308819 75.228575,34.0906389 75.565625,35.4166215 L75.918725,36.8384583 C76.047125,37.3337049 76.191575,38.1963924 76.336025,38.8194444 L78.727475,38.8194444 C78.615125,38.5957847 78.454625,38.004684 78.342275,37.3816319 L77.924975,35.4006458 C77.620025,33.6113681 76.849625,33.2279514 75.453275,33.1161215 C75.982925,33.0362431 78.229925,32.4451424 78.229925,30.3842778 C78.229925,28.4991458 76.945925,27.2849931 73.912475,27.2849931 L67.797425,27.2849931 L67.797425,38.8194444 L70.044425,38.8194444 Z M73.382825,32.3173368 L70.044425,32.3173368 L70.044425,28.8985382 L73.382825,28.8985382 C75.164375,28.8985382 75.918725,29.3937847 75.918725,30.5919618 C75.918725,31.838066 75.164375,32.3173368 73.382825,32.3173368 Z M90.427925,38.8194444 L90.427925,37.1579722 L83.398025,37.1579722 L83.398025,33.7551493 L89.834075,33.7551493 L89.834075,32.0936771 L83.398025,32.0936771 L83.398025,28.9464653 L90.251375,28.9464653 L90.251375,27.2849931 L81.151025,27.2849931 L81.151025,38.8194444 L90.427925,38.8194444 Z M94.279925,31.0392812 L96.045425,27.2849931 L93.766325,27.2849931 L92.610725,31.0392812 L94.279925,31.0392812 Z M103.604975,39.1229826 C106.863125,39.1229826 109.238525,38.004684 109.238525,35.4006458 C109.238525,33.2119757 107.537225,32.6528264 105.659375,32.3173368 L102.898775,31.8220903 C101.518475,31.5824549 100.748075,31.262941 100.748075,30.3683021 C100.748075,29.2500035 101.903675,28.6109757 103.653125,28.6109757 C105.177875,28.6109757 106.477925,28.962441 106.622375,30.4322049 L108.917525,30.4322049 C108.805175,27.9080451 106.445825,26.9814549 103.685225,26.9814549 C100.715975,26.9814549 98.501075,28.1636562 98.501075,30.5600104 C98.501075,32.620875 100.170275,33.2918542 101.999975,33.6273437 L104.792675,34.138566 C106.237175,34.4101528 106.975475,34.7456424 106.975475,35.6562569 C106.975475,36.7266285 105.916175,37.4934618 103.653125,37.4934618 C101.807375,37.4934618 100.523375,36.7905312 100.475225,35.2728403 L98.164025,35.2728403 C98.308475,37.6372431 99.817175,39.1229826 103.604975,39.1229826 Z" id="MCGUIRE’S" fill-rule="nonzero"></path>
            </g>
        </g>
    </g>
</svg>